<svg xmlns="http://www.w3.org/2000/svg" viewBox="0 0 64 64" fill="none">
  <defs>
    <linearGradient id="g" x1="0%" y1="0%" x2="100%" y2="100%">
      <stop offset="0%" stop-color="hsl(220, 80%, 60%)"/>
      <stop offset="100%" stop-color="hsl(260, 80%, 65%)"/>
    </linearGradient>
  </defs>
  <path d="M32 4 L56 16 V34 C56 48 44 58 32 62 C20 58 8 48 8 34 V16 Z" fill="url(#g)" opacity="0.9"/>
  <path d="M32 4 L56 16 V34 C56 48 44 58 32 62 C20 58 8 48 8 34 V16 Z" fill="none" stroke="rgba(255,255,255,0.3)" stroke-width="1.5"/>
  <circle cx="32" cy="30" r="6" fill="none" stroke="white" stroke-width="2.5"/>
  <line x1="32" y1="36" x2="32" y2="48" stroke="white" stroke-width="2.5" stroke-linecap="round"/>
  <line x1="26" y1="42" x2="38" y2="42" stroke="white" stroke-width="2.5" stroke-linecap="round"/>
  <circle cx="20" cy="22" r="2" fill="rgba(255,255,255,0.6)"/>
  <circle cx="44" cy="22" r="2" fill="rgba(255,255,255,0.6)"/>
  <line x1="22" y1="22" x2="26" y2="26" stroke="rgba(255,255,255,0.4)" stroke-width="1.5" stroke-linecap="round"/>
  <line x1="42" y1="22" x2="38" y2="26" stroke="rgba(255,255,255,0.4)" stroke-width="1.5" stroke-linecap="round"/>
</svg>
